<svg width="14" height="14" viewBox="0 0 14 14" fill="none" xmlns="http://www.w3.org/2000/svg">
<path d="M13.8289 13.0051L9.84773 9.02389C10.6189 8.07132 11.0832 6.86091 11.0832 5.5426C11.0832 2.48713 8.59706 0.000976562 5.54159 0.000976562C2.48612 0.000976562 0 2.4871 0 5.54257C0 8.59804 2.48615 11.0842 5.54162 11.0842C6.85993 11.0842 8.07035 10.6199 9.02291 9.84871L13.0041 13.8299C13.1179 13.9437 13.2672 14.0008 13.4165 14.0008C13.5659 14.0008 13.7152 13.9437 13.829 13.8299C14.057 13.6018 14.057 13.2332 13.8289 13.0051ZM5.54162 9.91753C3.12897 9.91753 1.16666 7.95522 1.16666 5.54257C1.16666 3.12992 3.12897 1.16761 5.54162 1.16761C7.95427 1.16761 9.91658 3.12992 9.91658 5.54257C9.91658 7.95522 7.95425 9.91753 5.54162 9.91753Z" fill="black"/>
</svg>
